<?xml version="1.0" encoding="utf-8"?>
<!DOCTYPE svg PUBLIC "-//W3C//DTD SVG 1.0//EN" "http://www.w3.org/TR/2001/REC-SVG-20010904/DTD/svg10.dtd">
<svg version="1.0" xmlns="http://www.w3.org/2000/svg" width="1838px" height="1727px" viewBox="0 0 1838 1727" preserveAspectRatio="xMidYMid meet">
 <g fill="#67bf98">
  <path d="M477.78 1326.81 c-50.65 -6.44 -85.98 -23.15 -106.52 -50.13 -16.54 -21.58 -28.37 -54.83 -32.03 -89.64 -1.22 -12.53 -1.57 -117.83 -1.22 -333.31 0.70 -280.23 1.04 -317.12 3.48 -333.31 10.97 -70.67 30.46 -115.57 65.10 -150.21 38.12 -38.12 95.90 -61.27 168.66 -67.36 15.84 -1.39 124.45 -1.74 361.16 -1.39 311.73 0.70 339.93 0.87 355.94 3.66 39.16 6.79 65.97 15.14 93.12 29.24 59.53 30.63 96.08 85.81 109.65 165.35 6.96 41.25 7.14 55.17 6.61 382.74 -0.70 315.38 -0.70 315.91 -4.35 330.87 -4.53 17.75 -12.53 39.16 -19.49 51.17 -16.54 28.89 -47.17 48.39 -91.73 58.66 l-17.23 4 -442.96 0.17 c-243.67 0.17 -445.23 -0.17 -448.19 -0.52z m726.67 -392.49 c10.79 -4.53 16.54 -10.62 52.22 -53.61 16.88 -20.54 45.78 -55.35 64.23 -77.45 18.28 -21.93 35.33 -44.38 38.12 -49.61 9.57 -19.32 5.05 -42.12 -11.31 -57.61 -15.66 -14.97 -33.42 -18.45 -50.13 -9.75 -10.10 5.22 -16.71 11.66 -40.73 41.25 -66.84 81.80 -69.80 85.29 -75.89 85.29 -4.70 0 -9.22 -3.13 -28.02 -20.19 -36.73 -32.90 -47.34 -38.29 -65.44 -33.07 -25.06 7.31 -44.38 35.16 -39.51 56.74 3.83 17.23 9.57 23.32 71.01 77.28 52.91 46.47 61.96 50.82 85.46 40.73z m-685.25 -58.13 c3.13 -1.57 12.18 -9.57 20.36 -18.10 22.28 -22.98 44.56 -36.03 74.49 -43.69 10.10 -2.61 19.15 -3.31 39.51 -3.31 32.37 0 45.95 2.96 72.23 15.84 16.36 8.18 20.02 10.97 36.03 26.98 24.89 25.24 33.42 28.89 48.73 21.41 9.22 -4.53 17.06 -14.27 19.84 -24.54 2.09 -7.48 1.91 -8.70 -2.78 -17.93 -2.96 -6.44 -10.10 -15.32 -18.97 -24.37 -62.66 -63.18 -147.60 -83.02 -228.53 -53.26 -30.98 11.31 -53.96 26.11 -79.54 50.48 -19.32 18.62 -25.41 27.67 -25.41 37.94 0 13.23 9.57 26.98 22.63 32.55 8.01 3.48 14.45 3.48 21.41 0z"/>
 </g>
 <g fill="#279570">
  <path d="M652.70 1603.72 c-26.46 -5.57 -49.43 -18.62 -68.05 -38.64 -13.40 -14.27 -22.45 -29.41 -28.89 -48.21 -4.53 -13.05 -4.87 -15.66 -4.87 -43.51 0 -16.19 0.70 -32.55 1.39 -36.03 l1.39 -6.61 -86.16 0 -85.98 0 -8.01 12.01 c-10.10 15.14 -30.29 34.29 -45.78 43.51 -17.23 10.27 -34.11 14.10 -61.96 14.10 -14.97 0 -26.11 -0.87 -33.24 -2.78 -23.85 -6.27 -50.82 -23.85 -64.23 -41.95 -8.18 -11.14 -17.75 -31.50 -21.23 -44.91 -4 -15.49 -3.48 -50.65 0.87 -67.71 7.48 -29.24 25.59 -54.65 50.65 -71.01 7.83 -5.05 13.75 -10.10 13.75 -11.66 -0.17 -1.57 -1.39 -10.97 -2.96 -21.06 -2.44 -16.01 -2.78 -55.70 -3.48 -327.22 -0.52 -214.78 -0.17 -319.21 1.22 -342.88 11.14 -194.59 75.89 -313.12 206.60 -378.39 43.51 -21.58 81.80 -33.24 142.38 -43.17 l24.37 -3.83 326.35 -0.70 c231.32 -0.35 332.62 0 348.11 1.39 90.86 8.18 166.92 34.46 225.40 77.98 77.11 57.44 124.10 141.68 143.42 258.12 10.10 60.05 9.75 44.73 9.75 406.24 0 314.51 -0.17 335.40 -3.13 355.07 l-3.13 20.89 5.57 4.35 c39.68 30.29 56.57 60.57 58.48 104.61 1.91 40.90 -9.75 71.36 -37.07 97.47 -13.23 12.53 -28.54 21.23 -46.47 26.80 -12.36 3.66 -17.75 4.35 -37.94 4.35 -27.15 0 -41.77 -3.13 -61.61 -13.58 -14.62 -7.66 -38.99 -30.98 -47.86 -45.95 l-6.09 -10.10 -103.39 0 -103.21 0 1.04 4.87 c5.57 25.59 5.22 55 -0.87 76.93 -12.36 44.56 -48.39 78.85 -95.56 90.68 -19.49 5.05 -55.17 4 -73.97 -1.91 -34.81 -10.97 -65.62 -37.07 -79.54 -67.71 -9.92 -21.58 -12.36 -35.51 -11.31 -66.14 0.52 -14.97 1.22 -29.07 1.57 -31.50 l0.52 -4.35 -87.72 -0.52 c-48.39 -0.17 -88.42 0.17 -89.12 0.87 -0.70 0.87 -0.17 7.31 1.22 14.45 9.57 53.78 -9.05 103.91 -50.13 134.89 -14.10 10.62 -32.72 19.32 -48.21 22.63 -15.49 3.31 -47.34 3.13 -62.83 -0.17z m714.49 -274.83 c59.53 -9.57 97.82 -34.98 118.53 -78.32 8.53 -17.75 15.32 -41.60 18.10 -63.53 1.04 -9.57 1.74 -119.75 1.74 -321.13 0 -326.70 -0.17 -329.83 -8.53 -369.86 -10.97 -52.04 -31.33 -93.12 -61.79 -125.14 -37.94 -39.51 -98.17 -64.92 -169.88 -71.36 -27.15 -2.61 -661.75 -2.61 -688.38 -0.17 -40.90 3.83 -76.93 13.05 -107.91 27.67 -24.72 11.66 -40.03 22.10 -57.79 38.81 -35.51 33.94 -56.57 74.15 -67.36 129.15 -9.22 45.43 -8.88 33.94 -8.88 371.78 0 296.59 0.17 316.78 3.13 331.57 15.49 78.15 53.96 116.27 131.76 130.37 20.19 3.66 874.62 3.83 897.24 0.17z"/>
 </g>
 <g fill="#195a41">
  <path d="M653.74 1613.99 c-46.47 -9.92 -86.85 -44.21 -103.74 -87.90 -8.88 -22.80 -10.79 -35.51 -10.10 -61.79 l0.87 -23.15 -77.98 0 -77.98 0 -6.96 10.10 c-13.40 19.84 -42.64 43.69 -63.70 51.87 -18.62 7.48 -20.71 7.83 -43.34 7.83 -26.98 0.17 -40.55 -2.44 -60.92 -12.18 -18.45 -8.70 -33.24 -20.02 -44.91 -34.46 -11.49 -14.45 -15.49 -20.71 -21.06 -34.98 -8.01 -19.49 -10.44 -35.16 -9.40 -57.61 1.22 -24.02 4.18 -36.03 13.92 -55.87 8.88 -17.93 26.28 -36.38 52.04 -54.48 2.61 -1.91 2.61 -3.48 0.52 -16.19 -5.57 -33.59 -6.09 -65.97 -6.09 -355.24 0 -328.09 0.52 -343.58 11.49 -407.81 25.41 -148.82 92.25 -245.59 208.69 -302.16 51 -24.72 105.65 -39.16 174.05 -46.12 27.67 -2.96 611.97 -4.35 647.48 -1.57 91.38 6.79 165 28.72 225.75 67.36 117.31 74.49 173.36 193.37 182.41 387.79 2.26 45.95 2.09 557.84 0 600.66 -0.87 18.28 -2.78 41.25 -4.35 51 -1.39 9.57 -2.61 18.62 -2.61 19.67 0 1.22 5.22 6.09 11.49 10.79 21.23 15.66 40.03 43.69 48.04 71.88 3.13 10.97 4 18.10 4 36.20 0 26.80 -2.44 37.94 -13.92 61.27 -14.27 29.07 -38.64 50.65 -74.32 65.79 l-15.32 6.44 -29.07 -0.70 c-26.63 -0.70 -30.46 -1.22 -42.29 -5.74 -27.50 -10.10 -53.61 -30.29 -68.23 -52.39 l-7.31 -11.14 -95.03 0.35 -94.86 0.52 0.35 5.22 c0.35 2.96 0.52 14.62 0.70 26.11 0.17 39.86 -13.40 73.45 -40.90 100.95 -9.22 9.05 -32.55 26.98 -35.16 26.98 -0.52 0 -2.96 1.57 -5.40 3.48 -2.44 1.91 -6.61 3.48 -9.05 3.48 -2.61 0 -6.27 1.22 -8.18 2.44 -4.53 3.13 -28.02 6.27 -46.82 6.27 -44.91 -0.17 -90.86 -25.59 -116.79 -64.75 -17.93 -26.80 -24.37 -51.87 -22.80 -87.90 l0.87 -23.15 -77.45 0 -77.63 0 1.04 6.61 c7.48 46.82 -4.87 89.99 -34.81 122.19 -9.05 9.75 -36.73 31.33 -40.38 31.33 -0.87 0 -2.44 1.04 -3.48 2.44 -1.22 1.39 -4.53 3.13 -7.31 3.66 -2.78 0.70 -7.48 2.26 -10.44 3.83 -11.66 5.92 -52.39 7.48 -73.62 2.78z m56.57 -15.32 c31.50 -6.61 64.40 -30.46 81.46 -58.83 18.45 -30.98 22.98 -61.09 14.97 -98.51 -2.09 -10.44 -2.26 -13.23 -0.52 -14.45 1.22 -0.70 43.86 -1.39 94.68 -1.39 76.24 0 92.94 0.35 94.51 2.44 1.39 1.74 1.39 5.40 -0.70 14.79 -1.39 6.96 -2.61 20.71 -2.61 30.46 0 48.91 24.37 89.46 67.88 112.96 26.46 14.27 59.53 18.80 87.03 11.84 47.69 -12.01 83.02 -45.95 95.90 -91.55 4.87 -17.41 5.40 -46.47 0.87 -62.83 -1.57 -5.92 -2.78 -12.36 -2.78 -14.45 l0 -3.66 109.31 0 109.13 0 6.09 10.10 c8.88 14.97 33.24 38.29 47.86 45.95 36.38 18.97 80.41 18.28 114.53 -1.57 13.40 -8.01 29.07 -22.63 38.12 -35.85 29.41 -43.34 26.63 -100.08 -7.14 -142.20 -8.01 -10.10 -13.23 -14.79 -32.03 -30.46 l-6.44 -5.22 4 -24.37 3.83 -24.37 0 -329.83 c0 -356.81 0.35 -341.84 -9.75 -401.89 -13.75 -82.15 -41.25 -148.99 -82.85 -200.51 -14.10 -17.41 -41.42 -43.34 -60.57 -57.61 -58.48 -43.51 -134.54 -69.80 -225.40 -77.98 -15.49 -1.39 -115.40 -1.74 -342.88 -1.39 l-321.13 0.70 -24.37 3.83 c-60.57 9.92 -98.86 21.58 -142.38 43.17 -130.71 65.27 -195.46 183.80 -206.60 378.39 -1.39 23.50 -1.74 127.58 -1.39 336.79 0.70 300.24 0.70 303.03 4.53 328.96 2.09 14.45 3.83 26.28 3.83 26.46 0 0.17 -6.61 4.70 -14.62 10.10 -35.33 23.15 -55 59.53 -55 101.65 0 19.67 2.96 32.55 11.31 50.48 11.84 25.06 29.41 42.82 53.61 54.65 17.75 8.70 30.98 11.66 51.17 11.66 33.07 0 56.57 -9.57 81.63 -33.59 7.14 -6.61 16.54 -17.58 20.89 -24.02 l8.01 -12.01 91.03 0 c52.22 0 91.55 0.70 92.07 1.57 0.52 0.87 -0.17 7.66 -1.74 15.14 -4.53 21.41 -2.61 52.91 4 71.54 6.79 18.80 14.62 31.68 28.20 46.12 30.98 33.24 76.76 48.04 120.44 38.81z"/>
  <path d="M464.72 1333.94 c-77.80 -14.10 -116.27 -52.22 -131.76 -130.37 -2.96 -14.79 -3.13 -35.16 -3.13 -336.79 0 -343.58 -0.35 -331.57 8.88 -377 10.79 -55 31.85 -95.21 67.36 -129.15 39.16 -37.42 95.56 -59.87 165.70 -66.49 26.63 -2.44 671.67 -2.44 698.82 0.17 71.71 6.44 131.93 31.85 169.88 71.36 30.46 32.03 50.82 73.10 61.79 125.14 8.35 40.03 8.53 42.64 8.53 375.08 0 205.03 -0.70 316.78 -1.74 326.35 -2.78 21.93 -9.57 45.78 -18.10 63.53 -20.71 43.34 -59 68.75 -118.53 78.32 -22.63 3.66 -887.50 3.48 -907.69 -0.17z m916.22 -16.01 c44.56 -10.27 75.19 -29.76 91.73 -58.66 6.96 -12.01 14.97 -33.42 19.49 -51.17 3.66 -14.97 3.66 -15.66 4.35 -325.65 0.52 -322.17 0.35 -336.27 -6.61 -377.52 -13.58 -79.54 -50.13 -134.72 -109.65 -165.35 -27.15 -14.10 -53.96 -22.45 -93.12 -29.24 -16.01 -2.78 -44.04 -2.96 -350.72 -3.66 -233.06 -0.35 -340.10 0 -355.94 1.39 -72.75 6.09 -130.54 29.24 -168.66 67.36 -34.64 34.64 -54.13 79.54 -65.10 150.21 -2.44 16.19 -2.78 52.74 -3.48 328.09 -0.35 211.82 0 315.56 1.22 328.09 6.96 67.88 36.90 111.05 89.29 128.63 12.88 4.35 34.46 9.22 49.26 11.14 2.96 0.35 202.25 0.70 442.96 0.52 l437.74 -0.17 17.23 -4z"/>
  <path d="M1176.08 943.37 c-13.75 -3.48 -24.72 -11.49 -68.40 -49.95 -49.43 -43.86 -56.92 -51.35 -61.79 -62.31 -16.88 -37.94 14.79 -82.50 56.22 -78.67 14.79 1.39 23.32 6.27 47.69 27.85 12.01 10.79 24.02 21.23 26.63 23.50 l4.87 4 26.28 -31.85 c14.45 -17.58 34.29 -41.60 44.04 -53.61 33.94 -41.77 39.86 -45.95 64.23 -45.95 12.18 -0.17 16.19 0.52 22.63 4 29.07 15.14 40.03 49.61 25.24 79.19 -2.44 4.87 -19.32 26.98 -37.60 48.91 -18.45 22.10 -47.34 56.92 -64.23 77.45 -17.06 20.54 -33.94 40.38 -37.60 43.86 -12.36 11.84 -32.37 17.41 -48.21 13.58z"/>
  <path d="M492.57 881.40 c-14.79 -6.44 -23.15 -20.02 -23.15 -37.60 0 -15.14 4 -21.93 25.06 -42.47 32.90 -31.68 65.62 -49.61 109.48 -60.22 21.06 -5.05 66.31 -6.27 88.07 -2.44 32.90 5.74 67.01 20.19 93.64 40.03 19.32 14.27 41.25 36.73 46.82 48.04 13.58 27.33 -4.35 57.44 -34.29 57.44 -13.92 0 -20.89 -4.18 -41.60 -25.06 -16.01 -16.01 -19.67 -18.80 -36.03 -26.98 -24.89 -12.18 -40.38 -15.84 -67.01 -15.84 -43.34 0 -77.45 14.79 -108.78 46.99 -8.18 8.53 -17.23 16.54 -20.36 18.10 -6.96 3.48 -23.85 3.48 -31.85 0z"/>
 </g>
</svg>
